<?xml version="1.0" encoding="utf-8"?>
<!-- Generator: Adobe Illustrator 23.0.3, SVG Export Plug-In . SVG Version: 6.00 Build 0)  -->
<svg version="1.1" id="Layer_1" xmlns="http://www.w3.org/2000/svg" xmlns:xlink="http://www.w3.org/1999/xlink" x="0px" y="0px"
	 viewBox="0 0 1041.0212402 395.3191528" style="enable-background:new 0 0 1041.0212402 395.3191528;" xml:space="preserve">
<style type="text/css">
	.st0{fill:#4D4D4D;}
	.st1{font-family:'Sarabun-Bold';}
	.st2{font-size:94.1685562px;}
	.st3{fill:#855028;}
	.st4{fill:#684122;}
	.st5{fill:#6A4021;}
	.st6{fill:#A46734;}
	.st7{fill:#83512B;}
	.st8{fill:none;stroke:#6A4021;stroke-width:3;stroke-linecap:round;stroke-miterlimit:10;}
	.st9{fill:#694021;}
	.st10{fill:#3F2400;}
	.st11{fill:#FBCF55;}
	.st12{fill:#FBC507;}
	.st13{fill:#A96733;}
	.st14{fill:#9E551A;}
	.st15{fill:#7ADD75;}
	.st16{fill:#61B25E;}
	.st17{fill:#79DE75;}
	.st18{fill:#259C5E;}
	.st19{fill:#61B35E;}
	.st20{fill:#7ADE74;}
	.st21{fill:#82D881;}
	.st22{fill:#62B25F;}
</style>
<text transform="matrix(0.9622782 0 0 1 557.190979 187.0185699)" class="st0 st1 st2">ชลบุรี</text>
<path class="st3" d="M572.0415649,85.2127686c9.2290649,0.777359,12.257019,1.7099915,16.5605469,4.0850983
	c1.3800659,1.0212708-0.2587891,4.6276703,1.1212769,5.648941c-2.5374146,0.2151337-5.7277832,0.6111755-9.3616943,1.372345
	c-2.8690186,0.6009521-7.8820801,1.8206635-13.7872314,4.2553101c-3.2095337,1.3232727-10.6724243,4.6504211-18.8936157,11.0638275
	c-2.4611206,1.9199524-8.2993164,6.47435-13.1063843,12.7659607c-12.585022,16.4716644-11.7181396,36.4943695-11.4042358,43.7446899
	c0.6143188,14.1885681,4.9345093,25.6216125,8.8500366,33.3616943c-10.2736816,0.1702118-20.5473633,0.3404236-30.8210449,0.5106354
	c-2.6669312-9.8083496-6.6993713-29.9950256-0.6672974-54.127655c4.3313599-17.3286285,12.1681519-29.9548492,17.7020874-37.4468079
	c4.916626-5.516037,12.597229-12.5923157,23.5615234-17.9574432
	C541.7955933,92.4893188,556.9731445,83.9435577,572.0415649,85.2127686z"/>
<path class="st4" d="M505.4893799,146.3829498c4.3313599-17.3286133,12.1681519-29.954834,17.7020874-37.4467773
	c4.916626-5.5160522,12.597229-12.5923462,23.5615234-17.9574585c0.000061-0.000061,10.7942505-6.0773926,23.2140503-7.2207031
	c-0.2113037-0.0185547-0.4094849-0.0375366-0.6275635-0.0559082c-15.0684204-1.269165-30.2459717,7.2765503-30.2460327,7.2766113
	c-10.9642944,5.3651123-18.6448975,12.4414063-23.5615234,17.9574585
	c-5.5339355,7.4919434-13.3707275,20.1181641-17.7020874,37.4467773
	c-6.0321045,24.1326294-1.9996338,44.3193359,0.6672974,54.1276855c2.5419312-0.0421143,5.0838623-0.0842285,7.6257935-0.1263428
	C503.4559326,190.530899,499.4824219,170.4152374,505.4893799,146.3829498z"/>
<g>
	<g>
		<path class="st3" d="M379.1552429,78.7973251c2.5036011,1.6220474,5.8039246,4.1483459,8.7651672,7.8201065
			c3.3927002,4.206749,4.9936829,8.2473602,5.7950134,11.0128021c2.8465881,10.2634583,5.6932068,20.5269241,8.5398254,30.79039
			l10.6367493,52.048111l3.2180481,23.1875153l-43.3177795-5.6453094
			c0.9048157-24.223114,1.6879578-36.0770721,2.5927734-60.3001862c-0.0292969-12.50811-0.0585938-25.0162277-0.0878906-37.5243454
			c-0.4911499-5.1930542-0.1313477-11.5601654,2.5622864-18.4287643
			C378.2616577,80.7320328,378.6963196,79.7452393,379.1552429,78.7973251z"/>
		<path class="st4" d="M406.9009399,204.9343262l-3.2180786-23.1875L393.0461121,129.6987
			c-2.8466187-10.263443-5.6932678-20.5269318-8.5398254-30.7903824c-0.8013611-2.7654495-2.4023132-6.8060532-5.7950134-11.0128021
			c-0.6913452-0.857254-1.401825-1.6461792-2.1156921-2.3816376c0.3479919-1.2321777,0.7655029-2.4854507,1.263855-3.7562332
			c0.4021912-1.0256042,0.836853-2.0124054,1.2958069-2.9603195c2.5036011,1.6220322,5.8039246,4.1483459,8.7651672,7.8201065
			c3.3927002,4.206749,4.9936523,8.2473526,5.7950134,11.0128021c2.8465576,10.2634506,5.6932068,20.5269394,8.5398254,30.79039
			l10.6367493,52.048111l3.2180481,23.1875153l-43.3177795-5.6453094c0.0018616-0.0493927-0.0018311,0.0493927,0,0
			L406.9009399,204.9343262z"/>
	</g>
	<circle class="st5" cx="367.7217102" cy="85.2395782" r="10"/>
	<circle class="st6" cx="371.7402039" cy="70.5476913" r="12"/>
	<circle class="st7" cx="383.0058289" cy="82.6135864" r="9.5"/>
	<circle class="st5" cx="576.5727539" cy="90.8566055" r="10"/>
	<circle class="st6" cx="580.5912476" cy="76.164711" r="12"/>
	<line class="st8" x1="392.1377258" y1="101.6775131" x2="381.7737122" y2="103.1158829"/>
	<line class="st8" x1="397.787323" y1="121.2140503" x2="382.9158325" y2="123.2779846"/>
	<line class="st8" x1="404.5984497" y1="147.2743683" x2="386.5874634" y2="149.7740173"/>
	<line class="st8" x1="408.1513672" y1="171.079834" x2="386.7642822" y2="174.0480347"/>
</g>
<path class="st0" d="M370.2127686,72.8297882c-4.5534363-8.8803711-6.5319214-20.3829803-6.5319214-39.3829803
	c0-1.8394966,0.2486572-8.4127274,1-10c0.8432617-0.2722855,1.7659302-0.487175,1.9655762-0.176239
	c0.0291138,0.0453415,0.041687,0.1033554,0.0344238,0.176239c-1,10,4.9148865,33.8297882,8.9148865,46.8297882
	C374.8368835,70.9361725,370.9716187,72.1702118,370.2127686,72.8297882z"/>
<g>
	<circle class="st9" cx="537.6489258" cy="193.0957489" r="6.5"/>
	<path class="st10" d="M537.6489868,186.5638428c-1.2350464,0-2.385376,0.350708-3.3687134,0.9487915
		c0.6168213-0.1942139,1.2728271-0.2998657,1.9537964-0.2998657c3.5898438,0,6.5,2.9101563,6.5,6.5
		c0,2.3548584-1.2564697,4.4108887-3.1314087,5.5512085c2.6350098-0.8295898,4.5463257-3.2911987,4.5463257-6.2001343
		C544.1489868,189.473938,541.2388306,186.5638428,537.6489868,186.5638428z"/>
	<path class="st11" d="M456.1489258,211.5957489h128c-3.7904663-2.3412781-8.1237793-4.73703-13-7
		c-6.8913574-3.1981812-13.3458252-5.4251404-19-7c-8.085022-2.4864807-19.78479-5.0979309-34-5
		c-11.7735291,0.0811157-21.6704102,1.9960022-29,4c-8.7876892,2.6529846-18.3061218,6.4685669-28,12
		C459.4259338,209.5789032,457.7596436,210.5807343,456.1489258,211.5957489z"/>
	<path class="st12" d="M571.1489258,204.5957489c-6.8913574-3.1981812-13.3458252-5.4251709-19-7
		c-8.085022-2.4865112-19.78479-5.0979614-34-5c-1.0879517,0.0075073-2.1541748,0.0355225-3.2095337,0.072937
		c12.0592041,0.4308472,22.0526733,2.7260132,29.2095337,4.927063c5.6541748,1.5748291,12.1086426,3.8018188,19,7
		c4.8762207,2.2629395,9.2095337,4.6586914,13,7h8C580.3584595,209.2544403,576.0251465,206.8586884,571.1489258,204.5957489z"/>
	<circle class="st13" cx="526.1489258" cy="191.5957489" r="11"/>
	<path class="st14" d="M526.1489258,180.5957489c-2.1702271,0-4.1878052,0.6370239-5.892334,1.7219238
		c1.2115479-0.4592285,2.5198364-0.7219238,3.892334-0.7219238c6.0751343,0,11,4.9248657,11,11
		c0,3.9049072-2.0405884,7.3260498-5.107666,9.2780762c4.1511841-1.5733643,7.107666-5.5754395,7.107666-10.2780762
		C537.1489258,185.5206146,532.2240601,180.5957489,526.1489258,180.5957489z"/>
</g>
<g>
	<path class="st15" d="M292.2127686,96.4468079l8-3.1304321c-0.2039185-2.5617218,0-5.5411377,0-8.8695679
		c0-4,1.1408997-8.0115814,2-11c-3,1.7536163-6,3.5072479-9,5.2608643L292.2127686,96.4468079z"/>
	<path class="st16" d="M329.2127686,69.4468079c2.6666565,7,5.3333435,14,8,21c7-4,10.3175659-6.0386124,19-11c7-4,10-4,21-9
		c-7-4-33.4227295-25.4136658-48-23c-15.9519958,2.6412659-27.2083435,9.0080109-32,12
		c-5.2077026,3.25177-14.225769,9.0080566-22,20c-4.0640564,5.7461395-6.5194397,11.1291809-8,15
		c1.7582092,1.0121918,4.7589722,2.0396118,7,3c3.275116,1.4035492,5.3317261,2.3503571,8,3c2-1,8-3,10-4
		c4.6666565-8.6666718,5.3333435-14.3333282,10-23c3.3333435,9,4,16,6,25c3,0,10-2,14-3L329.2127686,69.4468079z"/>
	<polygon class="st17" points="329.2127686,69.4468079 331.2127686,91.4468079 322.2127686,95.4468079 	"/>
	<g>
		<path class="st18" d="M304.2127686,79.4468079c-0.0140381,0.026062-0.0259399,0.0504761-0.039917,0.0764771
			c1.7575684,6.3296509,2.5109863,12.043335,4.039917,18.9235229c0.2301636,0,0.4908447-0.0153809,0.7648926-0.0375366
			C307.7558594,92.0641785,306.7662354,86.341095,304.2127686,79.4468079z"/>
		<path class="st0" d="M376.7234192,70.6702118c-3.2643127-2.7003708-7.9503479-6.226265-13.9361877-9.9255295
			c-11.6389771-7.1929245-22.7705994-14.1917114-34.0159607-13.0691528c-12.4539795,1.2432098-21.6954956,5.5657043-32,12
			c-5.2077026,3.25177-14.225769,9.0080566-22,20.0000076c-4.0640259,5.7461548-6.5194092,11.1291504-8,15
			c0.9941406,0.5723267,4.5467224,1.7147064,5.9734192,2.2819061c1.4698486-3.1813965,3.1455383-7.5913391,5.872345-11.4468079
			c7.931488-11.2144394,20.1541443-19.8350525,20.1542358-19.8351059
			c10.0740662-5.7514114,20.0175781-11.1708984,31.8031921-10.5904236
			c4.2859497,0.2110977,7.8407593,0.5528412,11.4028625,1.1833878c1.0756836,0.1904144,3.6337891,0.9685173,6.5545959,1.8804436
			c13.3589172,4.1708755,23.6595764,11.3936195,26.372345,13.3244667
			C375.2869263,71.7457733,375.9971619,71.1206589,376.7234192,70.6702118z"/>
	</g>
</g>
<g>
	<path class="st17" d="M410.4308472,71.4468079l16.9166565,16.3333359l8.166687-4.0833359
		c-3.1648865-2.2675934-7.0512695-4.7184525-11.666687-7C418.9267273,74.2642975,414.3458557,72.6019211,410.4308472,71.4468079z"/>
	<path class="st17" d="M415.0975037,85.4468079c-2.333313,0-4.6666565,0-7,0
		c-2.2089539-2.0678024-4.7307434-4.2386398-7.583313-6.4166641c-2.6340942-2.0112305-5.1853333-3.749939-7.5833435-5.25
		c3.57547,0.9928284,8.0407104,2.5936661,12.8333435,5.25C409.5699768,81.1395264,412.6688232,83.4082413,415.0975037,85.4468079z"
		/>
	<path class="st19" d="M373.6808472,69.113472c32.616394-10.656601,44.4596252-9.9913788,70,9.9166718l-8.1666565,4.6666641
		c-3.4666443-2.2967148-7.5502319-4.7113876-12.25-7c-4.6109009-2.2453384-8.9496765-3.9479675-12.8333435-5.25
		c0.7951355,2.0377884,1.5775452,4.1774139,2.3333435,6.4166641c0.8834839,2.6175995,1.656189,5.1506882,2.333313,7.5833359
		c-3.6944275-1.9444504-7.3888855-3.8888855-11.083313-5.8333359c-3.694458-1.9444504-7.3888855-3.8888779-11.0833435-5.8333282
		c0.4157715,1.2857056,0.8567505,2.2758102,1.1666565,2.9166641c1.1170959,2.3098373,2.0887451,3.3017731,2.3333435,5.25
		c0.0943604,0.751564,0.0464783,1.3743439,0,1.75c-1.3456116-0.4797287-3.1242371-0.9654846-5.25-1.1666641
		c-1.5533142-0.1470108-2.9356689-0.108345-4.0833435,0c-1.75-1.75-3.5-3.5-5.25-5.25
		C379.1253052,74.5579224,376.4030762,71.8356934,373.6808472,69.113472z"/>
	<g>
		<g>
			<g>
				<path class="st18" d="M443.3616943,79.1808548l0.3191528-0.1507111
					c-4.6341553-4.5895004-15.030304-13.5100403-30.3647156-16.1140327
					c-10.4865417-1.7807426-19.518219,0.031723-23.8852844,0.9473648c-6.6782227,1.4002266-12.0263062,3.5136681-15.75,5.2499962
					c0.6879883,0.6879959,1.3760071,1.3759995,2.0639954,2.0639954c3.4172363-1.8486252,8.4483643-4.1306381,14.8526611-5.5639954
					c11.1322632-2.4915161,20.0079651-0.9852295,22.166687-0.5833282
					C427.6153259,67.7950974,439.4778748,75.2301102,443.3616943,79.1808548z"/>
			</g>
		</g>
	</g>
</g>
<g>
	<polygon class="st20" points="427.8444824,24.0516605 423.2955933,32.8942642 402.8049011,30.0561447 	"/>
	<polygon class="st21" points="398.7953491,38.5805626 400.1521301,52.8456955 390.1363831,57.6444969 	"/>
	<path class="st22" d="M374.1875916,70.154129c0.4093323-8.2976875,2.4029236-22.3756828,11.5168762-36.2569962
		c5.379425-8.193306,13.7822571-20.9915142,28.5518188-23.0256214c8.6220398-1.1874599,15.893158,1.7782373,19.9039917,3.8610659
		c-2.1626892,3.5389032-4.3253784,7.0777922-6.4880676,10.6166945c-3.9552612,0.3749256-8.3466187,1.0035992-13.0670471,2.023674
		c-3.8754883,0.8374786-7.4295654,1.8213997-10.6379089,2.8540001c6.5168762,0.8989487,13.033783,1.797884,19.5506592,2.6968327
		l-7.1991272,12.1474876l-17.5234375-6.4907036c-1.2960205,2.4619255-2.6287537,5.3812904-3.8009644,8.7387428
		c-1.4383545,4.1197777-2.286499,7.900795-2.7948608,11.106945
		C386.1955261,62.3355408,380.1915588,66.2448349,374.1875916,70.154129z"/>
</g>
<g>
	<path class="st17" d="M601.0091553,100.7725449l2.425293,12.4640884l4.8771973,0.7227325
		c-0.6978149-1.9832077-1.6580811-4.2709274-2.9932251-6.7095108
		C603.8949585,104.6499252,602.3833008,102.4959259,601.0091553,100.7725449z"/>
	<path class="st17" d="M598.7380371,108.4108582c-1.0322266-0.7225876-2.0643921-1.4451828-3.0965576-2.1677704
		c-0.336853-1.5988007-0.7801514-3.3400574-1.3674927-5.1869278c-0.5424194-1.7054291-1.1325684-3.2646408-1.7288208-4.6708374
		c1.274231,1.5464401,2.7537231,3.6374054,4.0512085,6.2966614
		C597.626709,104.7936859,598.2949829,106.7569427,598.7380371,108.4108582z"/>
	<path class="st19" d="M585.4747925,88.3595886c17.7285767,5.3865509,22.7615967,9.3484421,27.8946533,26.0644608
		l-5.0578003-0.4646835c-0.8223267-2.0895462-1.8809814-4.4223175-3.2512817-6.890152
		c-1.3443604-2.4211731-2.7363892-4.5179901-4.0512085-6.296669c-0.2792969,1.1476822-0.5957642,2.3364792-0.954895,3.5611115
		c-0.4197998,1.4315414-0.8624268,2.7913818-1.3162231,4.0772018c-1.0321655-2.0042572-2.06427-4.0085144-3.0964355-6.0127716
		s-2.06427-4.0085068-3.0964355-6.012764c-0.2142334,0.6975098-0.3257446,1.2720566-0.387146,1.6515274
		c-0.2211304,1.3677368-0.0985107,2.1074371-0.5936279,3.0450134c-0.190979,0.3616791-0.4050293,0.6223602-0.5419312,0.7741394
		c-0.4467163-0.6289215-1.0830688-1.3946228-1.9611206-2.141922c-0.6416016-0.5460663-1.2650757-0.9570465-1.8063354-1.2645264
		c-0.2321777-1.3160858-0.4644165-2.632164-0.6965942-3.9482498
		C586.1972046,92.454071,585.8359985,90.4068222,585.4747925,88.3595886z"/>
	<g>
		<g>
			<g>
				<path class="st18" d="M613.1815796,114.3918839l0.1878662,0.0321655
					c-0.6287231-3.4653473-2.4650879-10.6309814-8.4421387-16.5316772
					c-4.0874023-4.0352249-8.6439819-6.0303879-10.859375-6.9777374c-3.3878784-1.4487076-6.4082031-2.1699829-8.5931396-2.5550461
					c0.0913086,0.517395,0.1826172,1.0348129,0.2738647,1.5522156c2.0841675,0.2404861,5.0164795,0.7890396,8.293396,2.1382675
					c5.696106,2.3452759,9.1559448,5.7602539,9.9864502,6.6065445
					C609.7418823,104.4788589,612.6870117,111.4414673,613.1815796,114.3918839z"/>
			</g>
		</g>
	</g>
</g>
<g>
	<polygon class="st20" points="634.5678711,40.9027252 630.0189819,49.745327 609.5283203,46.9072075 	"/>
	<polygon class="st21" points="605.5187378,55.4316254 606.8755493,69.6967621 596.8598022,74.4955597 	"/>
	<path class="st22" d="M580.9110107,87.005188c0.4093018-8.2976837,2.4028931-22.375679,11.5168457-36.2569923
		c5.3794556-8.193306,13.7822876-20.9915123,28.5518188-23.0256195c8.6220703-1.1874599,15.8931885,1.7782364,19.9039917,3.8610649
		c-2.1626587,3.5389023-4.3253784,7.0777931-6.4880371,10.6166954c-3.9552612,0.3749237-8.3466187,1.0035973-13.0670776,2.023674
		c-3.8754883,0.8374786-7.4295654,1.8213997-10.6378784,2.8540001c6.5168457,0.8989487,13.0337524,1.7978859,19.5506592,2.6968346
		l-7.1991577,12.1474838l-17.5234375-6.4907036c-1.2960205,2.4619255-2.6287231,5.3812943-3.8009644,8.7387466
		c-1.4383545,4.1197739-2.286499,7.9007874-2.7948608,11.1069412
		C592.9189453,79.1866074,586.914978,83.0958939,580.9110107,87.005188z"/>
</g>
<g>
	<path class="st15" d="M559.8892212,86.9879608l-7.9389648-3.2820587c0.2525635-2.557373,0.1054077-5.5401382,0.1687012-8.8679581
		c0.0761108-3.9992752-0.9882813-8.0318375-1.7903442-11.0360603c2.9660645,1.8103752,5.9321899,3.6207619,8.8982544,5.4311256
		L559.8892212,86.9879608z"/>
	<path class="st16" d="M523.4095459,59.2889595c-2.7993164,6.9480019-5.5986938,13.8960075-8.3980103,20.8440056
		c-6.9226685-4.1324387-10.2008362-6.2337952-18.787323-11.3594666c-6.9226379-4.1324387-9.9220886-4.1895142-20.8249817-9.3978729
		c7.0748291-3.8661079,33.9001465-24.7732315,48.428894-22.0826836
		c15.8988647,2.9442596,27.0320435,9.5239906,31.7658691,12.6065979
		c5.1448975,3.3502502,14.0518799,9.2770576,21.6155396,20.4149055c3.9540405,5.8224182,6.3065796,11.2511978,7.7131958,15.1494827
		c-1.7770996,0.9785538-4.796875,1.9487076-7.0557861,2.8662872c-3.3012085,1.3409882-5.3754883,2.248497-8.055603,2.8472672
		c-1.9806519-1.0378723-7.9414673-3.1516495-9.9221191-4.1895218c-4.5009155-8.7538834-5.0596924-14.4321976-9.5606079-23.1860771
		c-3.5039673,8.9349556-4.3037109,15.9210091-6.4745483,24.8813362c-2.9994507-0.0570755-9.960144-2.1898804-13.9403687-3.2658005
		L523.4095459,59.2889595z"/>
	<polygon class="st17" points="523.4095459,59.2889595 520.991394,81.246933 529.9136963,85.4174194 	"/>
	<g>
		<path class="st18" d="M548.2147827,69.7627487c0.0135498,0.026329,0.0250244,0.0509644,0.0384521,0.0772247
			c-1.8776245,6.2950668-2.739624,11.9933853-4.3991699,18.8432465c-0.2301025-0.0043793-0.4904785-0.0247192-0.7640381-0.0520859
			C544.432312,82.3104324,545.5306396,76.6072159,548.2147827,69.7627487z"/>
		<path class="st18" d="M475.8842468,59.6082993c3.315094-2.6377831,8.0673523-6.0738907,14.1224976-9.6586113
			c11.7737122-6.9702034,23.0364685-13.7559547,34.2584534-12.4196663
			c12.4280396,1.479908,21.5856323,5.9774323,31.7658691,12.6065979c5.1448975,3.3502502,14.0518188,9.2770576,21.6155396,20.414917
			c3.9539795,5.8224258,6.3065186,11.2511597,7.7131958,15.1494751c-1.0048218,0.5533142-4.5784912,1.6278992-6.0157471,2.1678543
			c-1.4090576-3.208786-3.0005493-7.6498032-5.6535034-11.5564499
			c-7.7167358-11.3632965-19.7731323-20.2148781-19.7732544-20.2149315
			c-9.9628296-5.9420204-19.8014526-11.5496941-31.5959473-11.193531
			c-4.2891846,0.1295204-7.8498535,0.4035759-11.4233093,0.9662437c-1.0791321,0.1699142-3.6515503,0.8992119-6.5892029,1.7554054
			c-13.4358215,3.9159813-23.8720398,10.9414558-26.6210327,12.8203506
			C477.3000183,60.7109947,476.6018066,60.0724792,475.8842468,59.6082993z"/>
	</g>
</g>
<circle class="st7" cx="591.8568726" cy="88.2306137" r="9.5"/>
<path class="st4" d="M534.8297729,95.6382904c0.6191406,1.5496826,1.9730225,4.342453,4.7659912,6.893631
	c2.5175781,2.2996216,5.1004639,3.3946228,6.6382446,3.9148865"/>
<path class="st4" d="M521.0425415,105.6808472c0.6191406,1.5496826,1.9730225,4.342453,4.7659912,6.893631
	c2.5175781,2.2996216,5.1004639,3.3946228,6.6382446,3.9148865"/>
<path class="st4" d="M509.3209229,125.0498047c1.0167847,1.3232574,3.0783081,3.6433105,6.4592285,5.3399658
	c3.0475464,1.5293579,5.8307495,1.8816376,7.4520264,1.9646606"/>
<path class="st4" d="M502.4421997,150.8361664c1.3508606,0.9798279,3.9866333,2.6185303,7.7102661,3.2846527
	c3.3564453,0.6004486,6.125061,0.1474457,7.703125-0.2336121"/>
<path class="st4" d="M494.6124268,168.5382996c2.0654297,1.5863647,6.0801392,4.2605591,11.6594238,5.4963379
	c5.0291443,1.1139069,9.1242676,0.5707245,11.4515381,0.0717468"/>
</svg>
