<svg id="Layer_1" data-name="Layer 1" xmlns="http://www.w3.org/2000/svg" viewBox="0 0 405.47729 286.15018">
  <title>car</title>
  <path d="M434.5,313.5A13.13609,13.13609,0,0,1,425,318H398.29a47.0065,47.0065,0,0,0-93.58,0H196.29a47.0065,47.0065,0,0,0-93.58,0H76a12.67585,12.67585,0,0,1-9.5-3.5A12.84047,12.84047,0,0,1,63,304q.495-33,1-66a26.27726,26.27726,0,0,1,18-22H378a59.11843,59.11843,0,0,1,42,19,71.04316,71.04316,0,0,1,17,31v36C437.15,302.57,438.64,308.57,434.5,313.5Z" transform="translate(-47.40545 -98.84982)" style="fill: none;stroke: #000;stroke-linecap: round;stroke-linejoin: round;stroke-width: 31px"/>
  <path d="M91.5,208.5l29-74a48.59716,48.59716,0,0,1,27-20h56v101H89.5Z" transform="translate(-47.40545 -98.84982)" style="fill: none;stroke: #000;stroke-linecap: round;stroke-linejoin: round;stroke-width: 31px"/>
  <path d="M208.5,114.5h59a42.439,42.439,0,0,1,37,16l63,83" transform="translate(-47.40545 -98.84982)" style="fill: none;stroke: #000;stroke-linecap: round;stroke-linejoin: round;stroke-width: 31px"/>
  <path d="M196.5,322.5a47,47,0,0,1-94,0q0-2.28.21-4.5a47.0065,47.0065,0,0,1,93.58,0Q196.5,320.22,196.5,322.5Z" transform="translate(-47.40545 -98.84982)" style="fill: none;stroke: #000;stroke-linecap: round;stroke-linejoin: round;stroke-width: 31px"/>
  <path d="M398.5,322.5a47,47,0,0,1-94,0q0-2.28.21-4.5a47.0065,47.0065,0,0,1,93.58,0Q398.5,320.22,398.5,322.5Z" transform="translate(-47.40545 -98.84982)" style="fill: none;stroke: #000;stroke-linecap: round;stroke-linejoin: round;stroke-width: 31px"/>
</svg>
