<?xml version="1.0" encoding="utf-8"?>
<!-- Generator: Adobe Illustrator 23.0.3, SVG Export Plug-In . SVG Version: 6.00 Build 0)  -->
<svg version="1.1" id="Layer_1" xmlns="http://www.w3.org/2000/svg" xmlns:xlink="http://www.w3.org/1999/xlink" x="0px" y="0px"
	 viewBox="0 0 495 495" style="enable-background:new 0 0 495 495;" xml:space="preserve">
<style type="text/css">
	.st0{fill:#FF8912;}
	.st1{fill:#0071BF;}
	.st2{fill:#2DBBFF;}
	.st3{fill:#7AEEFF;}
	.st4{fill:#FFF91B;}
</style>
<title>Chonburi_draft</title>
<circle class="st0" cx="247.5" cy="247.5" r="247.5"/>
<path class="st1" d="M495,248.6c-0.8,136-111.3,246-247.5,246c-136.2,0-246.7-110-247.5-246H495z"/>
<path class="st2" d="M455,248.6c-0.7,114-93.3,206.2-207.5,206.2c-114.1,0-206.8-92.2-207.5-206.2L455,248.6z"/>
<path class="st3" d="M413.4,248.6c-0.6,91.6-75.3,165.4-166.9,164.8c-90.8-0.6-164.3-74-164.8-164.8H413.4z"/>
<path class="st4" d="M413.4,248.6C412.8,157,338.1,83.2,246.5,83.7c-90.8,0.6-164.3,74-164.8,164.8H413.4z"/>
</svg>
