<svg id="Layer_1" data-name="Layer 1" xmlns="http://www.w3.org/2000/svg" viewBox="0 0 352.97194 354.53593">
  <title>export</title>
  <path d="M212,105H120a23.903,23.903,0,0,0-24,23V376a26.76191,26.76191,0,0,0,8.5,17.5A26.28455,26.28455,0,0,0,119,400H364a29.46658,29.46658,0,0,0,19.5-7.5A28.93929,28.93929,0,0,0,392,378V284" transform="translate(-80.5 -60.96407)" style="fill: none;stroke: #000;stroke-linecap: round;stroke-linejoin: round;stroke-width: 31px"/>
  <line x1="146" y1="208.53593" x2="330.5" y2="24.03593" style="fill: none;stroke: #000;stroke-linecap: round;stroke-linejoin: round;stroke-width: 31px"/>
  <path d="M417.5,192.5v-94a18.54315,18.54315,0,0,0-3-15c-5.8031-7.72236-15.40213-7.0522-16-7h-98" transform="translate(-80.5 -60.96407)" style="fill: none;stroke: #000;stroke-linecap: round;stroke-linejoin: round;stroke-width: 31px"/>
</svg>
