<svg id="Layer_1" data-name="Layer 1" xmlns="http://www.w3.org/2000/svg" viewBox="0 0 347 324.5">
  <title>suitcase</title>
  <path d="M126,162H393a30.13525,30.13525,0,0,1,18.5,10.5A29.70484,29.70484,0,0,1,418,189V367a24.59043,24.59043,0,0,1-18,23H128a31.15472,31.15472,0,0,1-26-22V187a27.97491,27.97491,0,0,1,24-25Z" transform="translate(-86.5 -81)" style="fill: none;stroke: #000;stroke-linecap: round;stroke-linejoin: round;stroke-width: 31px"/>
  <line x1="80" y1="85.5" x2="80" y2="305.5" style="fill: none;stroke: #000;stroke-linecap: round;stroke-linejoin: round;stroke-width: 31px"/>
  <line x1="266" y1="86.5" x2="266" y2="305.5" style="fill: none;stroke: #000;stroke-linecap: round;stroke-linejoin: round;stroke-width: 31px"/>
  <path d="M189.5,159.5v-41a20.5548,20.5548,0,0,1,19-22h100a22.3764,22.3764,0,0,1,22,20v37" transform="translate(-86.5 -81)" style="fill: none;stroke: #000;stroke-linecap: round;stroke-linejoin: round;stroke-width: 31px"/>
</svg>
